{"title":"Last Passenger 2013 DVDRip XViD juggs","uid":8451949,"size":744835399,"categoryP":"video","categoryS":"movies","magnet":"?xt=urn:btih:8125959782070b08c7d5bc1024d27614bad0af0e&amp;dn=Last+Passenger+2013+DVDRip+XViD+juggs&amp;tr=udp%3A%2F%2Ftracker.openbittorrent.com%3A80&amp;tr=udp%3A%2F%2Fopen.demonii.com%3A1337&amp;tr=udp%3A%2F%2Ftracker.coppersurfer.tk%3A6969&amp;tr=udp%3A%2F%2Fexodus.desync.com%3A6969","seeders":0,"leechers":0,"uploader":"juggs99","files":3,"time":1368023982,"description":"Source : DVDR-TV2LAX9 (Thanks)\n &lt;a href=&quot;\nhttp://www.imdb.com/title/tt1858481/&quot; rel=&quot;nofollow&quot; target=&quot;_NEW&quot;&gt;\nhttp://www.imdb.com/title/tt1858481/&lt;/a&gt;\n\nFormat                                   : AVI\nFormat/Info                              : Audio Video Interleave\nFile size                                : 699 MiB\nDuration                                 : 1h 32mn\nOverall bit rate                         : 1 054 Kbps\nWriting library                          : VirtualDub build 32842/release\n\nVideo\nID                                       : 0\nFormat                                   : MPEG-4 Visual\nFormat profile                           : Advanced Simple@L5\nFormat settings, BVOP                    : 2\nFormat settings, QPel                    : No\nFormat settings, GMC                     : No warppoints\nFormat settings, Matrix                  : Default (H.263)\nMuxing mode                              : Packed bitstream\nCodec ID                                 : XVID\nCodec ID/Hint                            : XviD\nDuration                                 : 1h 32mn\nBit rate                                 : 917 Kbps\nWidth                                    : 640 pixels\nHeight                                   : 272 pixels\nDisplay aspect ratio                     : 2.35:1\nFrame rate                               : 25.000 fps\nColor space                              : YUV\nChroma subsampling                       : 4:2:0\nBit depth                                : 8 bits\nScan type                                : Progressive\nCompression mode                         : Lossy\nBits/(Pixel*Frame)                       : 0.211\nStream size                              : 608 MiB (87%)\nWriting library                          : XviD 64\n\nAudio\nID                                       : 1\nFormat                                   : MPEG Audio\nFormat version                           : Version 1\nFormat profile                           : Layer 3\nMode                                     : Joint stereo\nMode extension                           : MS Stereo\nCodec ID                                 : 55\nCodec ID/Hint                            : MP3\nDuration                                 : 1h 32mn\nBit rate mode                            : Constant\nBit rate                                 : 128 Kbps\nChannel(s)                               : 2 channels\nSampling rate                            : 44.1 KHz\nCompression mode                         : Lossy\nStream size                              : 84.9 MiB (12%)\nAlignment                                : Split accross interleaves\nInterleave, duration                     : 40 ms (1.00 video frame)\nInterleave, preload duration             : 500 ms\nWriting library                          : LAME3.98\n\nPlot\nA small group of everyday passengers on a speeding London commuter train battle their warped driver who has a dark plan for everyone on-board.\n &lt;a href=&quot;\nhttp://www.shotpix.com/images/75699551166748225649.png&quot; rel=&quot;nofollow&quot; target=&quot;_NEW&quot;&gt;\nhttp://www.shotpix.com/images/75699551166748225649.png&lt;/a&gt; &lt;a href=&quot;\nhttp://www.shotpix.com/images/61747085464852765418.png&quot; rel=&quot;nofollow&quot; target=&quot;_NEW&quot;&gt;\nhttp://www.shotpix.com/images/61747085464852765418.png&lt;/a&gt; &lt;a href=&quot;\nhttp://www.shotpix.com/images/31074457259837914728.png&quot; rel=&quot;nofollow&quot; target=&quot;_NEW&quot;&gt;\nhttp://www.shotpix.com/images/31074457259837914728.png&lt;/a&gt;","torrent":{"xt":"urn:btih:8125959782070b08c7d5bc1024d27614bad0af0e","amp;dn":"Last+Passenger+2013+DVDRip+XViD+juggs","amp;tr":["udp%3A%2F%2Ftracker.openbittorrent.com%3A80","udp%3A%2F%2Fopen.demonii.com%3A1337","udp%3A%2F%2Ftracker.coppersurfer.tk%3A6969","udp%3A%2F%2Fexodus.desync.com%3A6969"],"infoHash":"8125959782070b08c7d5bc1024d27614bad0af0e","infoHashBuffer":{"type":"Buffer","data":[129,37,149,151,130,7,11,8,199,213,188,16,36,210,118,20,186,208,175,14]},"announce":[],"urlList":[]}}